# xmcd
#
# Track frame offsets: 
#        150
#        15834
#        28513
#        44568
#        58873
#        76962
#        99933
#        113364
#        126078
#        142110
#        156979
#        176677
#        192488
#        209985
#        228299
#        244805
#        264226
#        284093
#
# Disc length: 4040 seconds
#
# Revision: 0
# Processed by: cddbd v1.5.2PL0 Copyright (c) Steve Scherf et al.
# Submitted via: ExactAudioCopyFreeDBPlugin 1.0
#
DISCID=010fc612
DTITLE=Various Artist - New Country Rock Vol. 11
DYEAR=2016
DGENRE=Country
TTITLE0=Kevin Chase - Whole Lotta Honey
TTITLE1=Nick Riggins - Farmed And Dancerous
TTITLE2=Bellamy Brothers - Time Rock On
TTITLE3=Sean Partrick McGram - I'm That Guy
TTITLE4=John Coinman - Sky Full Of You
TTITLE5=The Bacon Brothers - Boys In Bars
TTITLE6=Rick Monroe - Pretty Goog Problem to Have
TTITLE7=Nasfield - Kick It Like Country
TTITLE8=Bucket Boys - HeartbAnd Soul
TTITLE9=Daryle Singletary - Get Out Of My Country
TTITLE10=John Campbelljohn - Steady Rolling Man
TTITLE11=Flynnville Train - High On The Mountain
TTITLE12=Blues Bureau - Gypsy Woman
TTITLE13=Mark Selby - Chance A Comin'
TTITLE14=Cody McCarver with Richard Sterban - Bow Chicka Wow Wow
TTITLE15=Tempesta - Cry For Help
TTITLE16=Mojo Makers - Come On Brother
TTITLE17=Buffalo C. Wayne - When I Was Young
EXTD=
EXTT0=
EXTT1=
EXTT2=
EXTT3=
EXTT4=
EXTT5=
EXTT6=
EXTT7=
EXTT8=
EXTT9=
EXTT10=
EXTT11=
EXTT12=
EXTT13=
EXTT14=
EXTT15=
EXTT16=
EXTT17=
PLAYORDER=
